<svg xmlns="http://www.w3.org/2000/svg" version="1.1" xmlns:xlink="http://www.w3.org/1999/xlink" xmlns:svgjs="http://svgjs.dev/svgjs" width="1500" height="1500" viewBox="0 0 1500 1500"><rect width="1500" height="1500" fill="#000000"></rect><g transform="matrix(0.6666666666666666,0,0,0.6666666666666666,249.39393939393938,694.0580112033475)"><svg viewBox="0 0 396 44" data-background-color="#ffffff" preserveAspectRatio="xMidYMid meet" height="166" width="1500" xmlns="http://www.w3.org/2000/svg" xmlns:xlink="http://www.w3.org/1999/xlink"><g id="tight-bounds" transform="matrix(1,0,0,1,0.2400000000000091,0.2419955456570051)"><svg viewBox="0 0 395.52 43.51600890868596" height="43.51600890868596" width="395.52"><g><svg viewBox="0 0 395.52 43.51600890868596" height="43.51600890868596" width="395.52"><g><svg viewBox="0 0 395.52 43.51600890868596" height="43.51600890868596" width="395.52"><g id="textblocktransform"><svg viewBox="0 0 395.52 43.51600890868596" height="43.51600890868596" width="395.52" id="textblock"><g><svg viewBox="0 0 395.52 43.51600890868596" height="43.51600890868596" width="395.52"><g transform="matrix(1,0,0,1,0,0)"><svg width="395.52" viewBox="0.95 -36.35 336.73 37.050000000000004" height="43.51600890868596" data-palette-color="#293040"><path d="M7.3-36L21.8-36Q27.5-36 29.9-33.5L29.9-33.5Q31.7-31.6 31.7-28.7L31.7-28.7Q31.7-27.7 31.5-26.6L31.5-26.6 30.8-22.7Q30.2-19.45 28.73-17.45 27.25-15.45 25.45-14.6L25.45-14.6 30 0 19.9 0 15.7-13.45 12.6-13.45 10.55 0 0.95 0 7.3-36ZM18.65-28.2L18.65-28.2 14.9-28.2 13.6-19.5 17.1-19.5Q19.75-19.5 20.9-20.78 22.05-22.05 22.05-24.15L22.05-24.15Q22.05-28.2 18.65-28.2ZM52.95-36.35L52.95-36.35Q65-36.35 65-26.5L65-26.5Q65-24.85 64.65-22.95L64.65-22.95 62.9-12.95Q61.7-6 57.7-2.65 53.7 0.7 46.45 0.7 39.2 0.7 36.35-2.65L36.35-2.65Q34.4-4.95 34.4-9L34.4-9Q34.4-10.8 34.8-12.95L34.8-12.95 36.55-22.95Q38.9-36.35 52.95-36.35ZM47.8-7.05L47.8-7.05Q50.3-7.05 51.8-8.35 53.3-9.65 53.9-13.15L53.9-13.15 55.6-22.75Q55.75-23.75 55.75-24.55L55.75-24.55Q55.75-28.6 51.65-28.6L51.65-28.6Q46.5-28.5 45.5-22.75L45.5-22.75 43.8-13.15Q43.6-11.9 43.6-10.55L43.6-10.55Q43.6-7.05 47.8-7.05ZM92.09-36L101.59-36 90.15-17.85 95.25 0 85.75 0 82-13.2 78.05-13.2 75.7 0 66.7 0 73.05-36 82.05-36 79.4-21 82.59-21 92.09-36ZM118.19-36.35L118.19-36.35Q130.24-36.35 130.24-26.5L130.24-26.5Q130.24-24.85 129.89-22.95L129.89-22.95 128.14-12.95Q126.94-6 122.94-2.65 118.94 0.7 111.69 0.7 104.44 0.7 101.59-2.65L101.59-2.65Q99.64-4.95 99.64-9L99.64-9Q99.64-10.8 100.04-12.95L100.04-12.95 101.79-22.95Q104.14-36.35 118.19-36.35ZM113.04-7.05L113.04-7.05Q115.54-7.05 117.04-8.35 118.54-9.65 119.14-13.15L119.14-13.15 120.84-22.75Q120.99-23.75 120.99-24.55L120.99-24.55Q120.99-28.6 116.89-28.6L116.89-28.6Q111.74-28.5 110.74-22.75L110.74-22.75 109.04-13.15Q108.84-11.9 108.84-10.55L108.84-10.55Q108.84-7.05 113.04-7.05ZM171.24 0L161.74 0 162.04-7.85 153.69-7.85 151.24 0 141.69 0 154.54-36 171.04-36 171.24 0ZM162.84-27.25L159.69-27.25 155.74-14.55 162.29-14.55 162.84-27.25ZM182.34-36L196.84-36Q202.54-36 204.94-33.5L204.94-33.5Q206.74-31.6 206.74-28.7L206.74-28.7Q206.74-27.7 206.54-26.6L206.54-26.6 205.84-22.7Q205.24-19.45 203.76-17.45 202.29-15.45 200.49-14.6L200.49-14.6 205.04 0 194.94 0 190.74-13.45 187.64-13.45 185.59 0 175.99 0 182.34-36ZM193.69-28.2L193.69-28.2 189.94-28.2 188.64-19.5 192.14-19.5Q194.79-19.5 195.94-20.78 197.09-22.05 197.09-24.15L197.09-24.15Q197.09-28.2 193.69-28.2ZM221.43 0.7L221.43 0.7Q214.28 0.7 211.53-2.4L211.53-2.4Q209.63-4.6 209.63-8.55L209.63-8.55Q209.63-10.25 209.98-12.2L209.98-12.2 212.03-23.7Q214.28-36.35 228.28-36.35L228.28-36.35Q234.08-36.35 237.08-33.88 240.08-31.4 240.08-27.1L240.08-27.1Q240.08-25.1 239.51-23.13 238.93-21.15 238.38-20.2L238.38-20.2 237.83-19.2 228.98-19.2Q230.63-21.1 230.63-24.6L230.63-24.6Q230.63-26.45 229.68-27.53 228.73-28.6 226.88-28.6L226.88-28.6Q221.83-28.6 220.88-23L220.88-23 219.13-12.9Q218.88-11.6 218.88-10.35L218.88-10.35Q218.88-7.05 222.83-7.05L222.83-7.05Q227.58-7.05 228.53-12.4L228.53-12.4 237.53-12.4 237.28-10.95Q235.28 0.7 221.43 0.7ZM268.03 0L258.53 0 258.83-7.85 250.48-7.85 248.03 0 238.48 0 251.33-36 267.83-36 268.03 0ZM259.63-27.25L256.48-27.25 252.53-14.55 259.08-14.55 259.63-27.25ZM279.13-36L293.13-36Q299.68-36 302.48-32.7L302.48-32.7Q304.53-30.2 304.53-26.45L304.53-26.45Q304.53-25.1 304.28-23.6L304.28-23.6 302.33-12.45Q301.33-6.8 297.43-3.4 293.53 0 287.33 0L287.33 0 272.78 0 279.13-36ZM289.98-28.2L289.98-28.2 286.73-28.2 283.18-7.8 287.93-7.8Q290.28-7.8 291.6-9.08 292.93-10.35 293.43-13.25L293.43-13.25 294.88-21.45Q295.08-22.55 295.08-23.45L295.08-23.45Q295.08-28.2 289.98-28.2ZM332.73-7.8L331.33 0 306.23 0 312.58-36 337.68-36 336.28-28.2 320.18-28.2 319.03-21.45 332.33-21.45 330.93-13.65 317.63-13.65 316.63-7.8 332.73-7.8Z" opacity="1" transform="matrix(1,0,0,1,0,0)" fill="#ffffff" class="wordmark-text-0" data-fill-palette-color="primary" id="text-0"></path></svg></g></svg></g></svg></g></svg></g><g></g></svg></g><defs></defs></svg><rect width="395.52" height="43.51600890868596" fill="none" stroke="none" visibility="hidden"></rect></g></svg></g></svg>